# xmcd
#
# Track frame offsets:
#	150
#	21288
#	42515
#	64870
#	84538
#	106720
#	130705
#	146898
#	165290
#	187363
#
# Disc length: 2848 seconds
#
# Revision: 1
# Processed by: cddbd v1.5.2PL0 Copyright (c) Steve Scherf et al.
# Submitted via: EZCDAudioConverter 8.0.2.1
#
DISCID=890b1e0a
DTITLE=Various Artist - Got Hong
DYEAR=1991
DGENRE=blues
TTITLE0=Kiều Nga - Phiên khúc
TTITLE1=Ngọc Lan - Chờ phone của anh
TTITLE2=Kiều Nga - Gót hồng thôi hết phiêu du
TTITLE3=Thái Hiền - Em yêu đâu rồi
TTITLE4=Ngọc Lan - Trưng Vương khung cửa mùa thu
TTITLE5=Ngọc Lan - Trời biết buồn
TTITLE6=Thái Hiền - Giàn thiên lý đã xa
TTITLE7=Kiều Nga - Nỗi sầu khôn nguôi
TTITLE8=Thái Hiền - Trả lại em yêu
TTITLE9=Kiều Nga - Bài tập yêu
EXTD=
EXTT0=
EXTT1=
EXTT2=
EXTT3=
EXTT4=
EXTT5=
EXTT6=
EXTT7=
EXTT8=
EXTT9=
PLAYORDER=
